<?xml version="1.0" encoding="UTF-8" standalone="no"?>
<!-- Created with Inkscape (http://www.inkscape.org/) -->

<svg
   version="1.1"
   id="svg1"
   width="1440"
   height="1440"
   viewBox="0 0 1440 1440"
   sodipodi:docname="n nytlex.svg"
   inkscape:version="1.4.3 (0d15f75, 2025-12-25)"
   xmlns:inkscape="http://www.inkscape.org/namespaces/inkscape"
   xmlns:sodipodi="http://sodipodi.sourceforge.net/DTD/sodipodi-0.dtd"
   xmlns="http://www.w3.org/2000/svg"
   xmlns:svg="http://www.w3.org/2000/svg">
  <defs
     id="defs1" />
  <sodipodi:namedview
     id="namedview1"
     pagecolor="#ffffff"
     bordercolor="#000000"
     borderopacity="0.25"
     inkscape:showpageshadow="2"
     inkscape:pageopacity="0.0"
     inkscape:pagecheckerboard="0"
     inkscape:deskcolor="#d1d1d1"
     inkscape:zoom="0.37957885"
     inkscape:cx="630.96245"
     inkscape:cy="894.41232"
     inkscape:window-width="1920"
     inkscape:window-height="991"
     inkscape:window-x="-9"
     inkscape:window-y="-9"
     inkscape:window-maximized="1"
     inkscape:current-layer="g1" />
  <g
     inkscape:groupmode="layer"
     inkscape:label="Image"
     id="g1">
    <g
       id="g2"
       transform="matrix(1.7448703,0,0,1.7448703,-475.3442,-510.14467)">
      <path
         style="fill:#545657"
         d="m 905.76,1110.6588 c -12.24979,-1.5823 -19.20785,-3.2472 -27.84,-6.6613 -1.056,-0.4176 -4.296,-1.6937 -7.2,-2.8356 -15.5933,-6.1319 -28.36399,-14.1884 -42.93995,-27.0889 -16.04437,-14.2001 -24.07917,-23.9012 -57.90413,-69.913 -6.79267,-9.24 -13.3818,-18.096 -14.64252,-19.68 -1.26071,-1.584 -3.11597,-4.16812 -4.1228,-5.74249 C 749.47757,976.18395 741.92187,965.80357 730.48423,950.4 721.90634,938.84778 718.4166,934.03136 715.2,929.30524 c -1.848,-2.71526 -4.548,-6.37275 -6,-8.12777 -1.452,-1.75502 -2.64,-3.53807 -2.64,-3.96233 0,-0.42427 -0.82816,-1.66324 -1.84036,-2.75327 -1.0122,-1.09003 -3.4962,-4.40834 -5.52,-7.37403 -3.31468,-4.85735 -9.56906,-13.70495 -18.24359,-25.80784 -1.70295,-2.376 -5.60273,-7.93842 -8.66617,-12.36094 -3.06343,-4.42251 -7.08188,-10.14084 -8.92988,-12.70739 -8.56388,-11.89375 -19.12735,-26.9566 -30.2199,-43.09167 -3.4484,-5.016 -8.3991,-12.144 -11.00155,-15.84 -2.60246,-3.696 -7.14198,-10.176 -10.08783,-14.4 -2.94585,-4.224 -8.3706,-12 -12.055,-17.28 -3.6844,-5.28 -8.18057,-11.76 -9.9915,-14.4 -1.81092,-2.64 -6.34025,-9.12 -10.06517,-14.4 -6.43821,-9.12603 -26.56003,-39.02588 -44.25905,-65.76636 -1.32,-1.99431 -8.016,-11.98874 -14.88,-22.20983 -6.864,-10.2211 -12.65845,-19.01581 -12.87655,-19.54381 -0.21811,-0.528 -6.64338,-10.464 -14.27839,-22.08 -15.5248,-23.61963 -18.6337,-28.39415 -23.4412,-36 -1.83556,-2.904 -7.14729,-11.112 -11.80386,-18.24 -10.95295,-16.76614 -14.09702,-21.71078 -16.78651,-26.4 -1.21134,-2.112 -3.15919,-5.352 -4.32857,-7.2 -5.29846,-8.37329 -12.92751,-20.94071 -14.56918,-24 -0.99167,-1.848 -2.49011,-4.44 -3.32986,-5.76 -2.95155,-4.6395 -13.45855,-21.62149 -14.55216,-23.52 -0.6083,-1.056 -2.02211,-3.432 -3.14181,-5.28 -9.84537,-16.24927 -13.67512,-22.59622 -15.49606,-25.68126 -3.49244,-5.91688 -5.97587,-10.09893 -8.40791,-14.15874 -1.2652,-2.112 -3.19759,-5.352 -4.2942,-7.2 -6.64691,-11.20129 -21.26342,-32.90231 -28.70998,-42.62548 -8.16075,-10.65571 -33.23319,-36.20931 -40.25977,-41.03239 -2.48819,-1.7079 -6.89999,-4.71583 -9.80399,-6.68428 -8.89481,-6.02927 -9.74332,-7.32894 -9.40908,-14.41196 0.28682,-6.07806 0.31851,-6.14025 4.05829,-7.96579 3.26575,-1.59415 7.24091,-1.95701 29.76,-2.71655 31.65024,-1.06754 141.38769,-0.26107 151.00894,1.10977 10.05332,1.4324 26.59088,7.14311 41.49542,14.3291 24.61843,11.86939 42.5663,28.75755 66.94453,62.99185 3.19895,4.49228 16.41269,22.6106 19.98707,27.40573 5.73767,7.69723 20.61806,28.36398 26.87483,37.32531 3.696,5.29364 9.528,13.53302 12.96,18.30973 3.432,4.7767 8.184,11.50425 10.56,14.95011 4.41994,6.41013 9.40028,13.28635 15.36,21.20713 3.22874,4.29117 8.67441,12.02995 17.82274,25.32772 2.36108,3.432 10.57205,15.096 18.2466,25.92 7.67455,10.824 18.49233,26.376 24.03953,34.56 5.54719,8.184 13.732,20.20807 18.18846,26.72016 4.45647,6.51208 8.10267,12.23608 8.10267,12.72 0,0.48391 0.33989,0.87984 0.75532,0.87984 0.41543,0 4.33567,5.292 8.71166,11.76 4.37599,6.468 10.10555,14.784 12.73235,18.48 2.6268,3.696 5.50203,7.8 6.3894,9.12 0.88737,1.32 3.81883,5.424 6.51436,9.12 2.69554,3.696 6.40206,8.88 8.23673,11.52 12.08541,17.39036 15.62194,22.53633 24.27078,35.31614 5.31817,7.8583 11.2794,16.51893 13.24717,19.24584 5.55997,7.70491 9.39056,13.12688 15.44588,21.86268 3.071,4.43044 7.72478,11.07934 10.34173,14.77534 2.61694,3.696 7.55347,10.824 10.97007,15.84 3.41659,5.016 9.67667,13.872 13.91129,19.68 4.23463,5.808 10.17745,14.232 13.20629,18.72 3.02883,4.488 7.92103,11.4 10.87155,15.36 2.95052,3.96 6.40652,8.76268 7.68,10.67261 1.27348,1.90994 5.77142,8.5341 9.99542,14.72035 4.224,6.18625 8.112,11.9584 8.64,12.82699 1.06765,1.75635 13.29415,18.81934 17.47814,24.39205 1.47502,1.9646 4.62586,6.40315 7.00186,9.86344 2.376,3.4603 9.504,13.30858 15.84,21.88508 6.336,8.5765 12.168,16.52481 12.96,17.66291 0.792,1.13809 9.70946,13.01041 19.8166,26.38292 10.1071,13.37251 22.9294,30.36165 28.4941,37.75365 9.3447,12.4134 14.2712,18.895 17.9293,23.5891 0.792,1.0162 3.384,4.4687 5.76,7.6721 2.376,3.2033 6.9181,8.9281 10.0936,12.7215 14.6569,17.5095 16.7864,21.5109 16.7864,31.5422 0,7.6417 -1.312,10.8038 -5.9064,14.2351 -3.2136,2.4 -3.2136,2.4 -85.2936,2.5014 -45.144,0.056 -84.672,-0.2334 -87.84,-0.6426 z m -517.06246,-3.2958 c -1.37636,-0.7481 -3.21236,-2.4436 -4.08,-3.7678 -1.45427,-2.2195 -1.57754,-24.2721 -1.57754,-282.21893 0,-175.84382 0.34138,-280.70917 0.91876,-282.22779 1.16975,-3.07669 5.63014,-5.39586 10.31357,-5.3625 6.4774,0.0461 13.01337,7.54382 27.17533,31.17402 10.13579,16.91225 10.61642,17.6845 19.41825,31.2 2.92276,4.488 5.47161,8.592 5.6641,9.12 0.34739,0.95287 13.7407,21.61508 17.24294,26.60113 1.00488,1.43062 1.82705,2.9194 1.82705,3.3084 0,0.389 1.02086,2.24249 2.26857,4.11887 5.44599,8.18996 14.94364,22.96382 17.31349,26.9316 4.24217,7.10258 4.81435,8.02706 6.81794,11.01597 1.056,1.57531 2.352,3.59218 2.88,4.48194 1.96195,3.30618 7.39782,11.99936 10.11871,16.18209 1.5456,2.376 3.11573,4.95469 3.48919,5.73042 0.37346,0.77573 4.05246,6.7246 8.17555,13.21971 4.1231,6.49511 7.49655,11.97301 7.49655,12.17311 0,0.2001 1.56144,2.67523 3.46987,5.50029 3.5621,5.273 7.70584,13.70538 10.07212,20.49647 1.12451,3.22727 1.33801,30.95348 1.33801,173.76 0,93.456 -0.32921,171.096 -0.73158,172.5333 -0.40237,1.4373 -2.33865,3.7053 -4.30285,5.04 -3.57127,2.4267 -3.57127,2.4267 -73.18842,2.3883 -58.19496,-0.032 -70.02773,-0.2616 -72.11961,-1.3986 z M 1069.259,1002.9167 c -2.8211,-1.2643 -13.9498,-14.76819 -31.0166,-37.6367 -3.9405,-5.28 -9.0091,-12.05257 -11.2635,-15.05015 -2.2544,-2.99759 -5.8269,-7.86597 -7.9389,-10.81863 -2.112,-2.95266 -5.784,-7.94343 -8.16,-11.0906 -2.376,-3.14716 -6.264,-8.33767 -8.64,-11.53445 -2.376,-3.19679 -5.616,-7.44881 -7.2,-9.44895 -1.584,-2.00013 -3.744,-4.84754 -4.8,-6.32758 -1.056,-1.48004 -2.99658,-4.01132 -4.31239,-5.62507 -1.31582,-1.61376 -3.47582,-4.53989 -4.8,-6.50252 -2.17125,-3.21809 -6.28851,-8.60749 -12.77489,-16.72205 -4.87164,-6.09448 -11.17242,-15.7234 -16.01873,-24.48 -2.77609,-5.016 -5.43846,-9.26785 -5.91638,-9.44856 -0.47792,-0.1807 -1.79514,-2.1247 -2.92715,-4.32 -1.78389,-3.45946 -2.15505,-6.35849 -2.78481,-21.75144 -0.39963,-9.768 -0.75788,-116.63788 -0.79612,-237.48862 -0.0532,-168.18627 0.20046,-220.62976 1.08145,-223.57025 0.75705,-2.52681 2.15346,-4.45296 4.08,-5.62779 2.77851,-1.69438 6.22347,-1.78635 67.04282,-1.78975 71.6111,-0.004 67.1167,-0.43711 70.8215,6.82481 1.8354,3.59759 1.8647,8.74954 1.8647,327.34752 0,307.15266 -0.086,323.75758 -1.68,324.96768 -2.0897,1.5863 -10.4045,1.6421 -13.861,0.093 z"
         id="path4" />
      <path
         style="fill:#3e4244"
         d="m 907.68,1110.1488 c -14.79546,-1.454 -35.64386,-8.0365 -50.00953,-15.7898 -19.09219,-10.3042 -40.9156,-29.2367 -55.11047,-47.8101 -1.32,-1.7272 -4.344,-5.6772 -6.72,-8.7779 -2.376,-3.1007 -6.264,-8.2533 -8.64,-11.4502 -2.376,-3.197 -6.264,-8.3809 -8.64,-11.5199 -5.41951,-7.16 -16.66107,-22.46309 -22.9787,-31.2809 -2.64805,-3.696 -6.58653,-9.096 -8.75219,-12 -2.16565,-2.904 -5.35245,-7.224 -7.08176,-9.6 -1.72932,-2.376 -7.08122,-9.72 -11.89313,-16.32 -4.81191,-6.6 -9.73561,-13.43251 -10.94157,-15.18336 -1.20596,-1.75085 -3.81265,-5.30214 -5.79265,-7.89176 -1.98,-2.58962 -3.6,-5.11711 -3.6,-5.61664 0,-0.49953 -0.37623,-1.05224 -0.83607,-1.22824 -0.45984,-0.176 -3.55884,-4.208 -6.88668,-8.96 -3.32784,-4.752 -8.16493,-11.664 -10.74908,-15.36 -2.58415,-3.696 -6.86746,-9.744 -9.51847,-13.44 -2.651,-3.696 -6.29067,-8.88 -8.08814,-11.52 -1.79748,-2.64 -5.01169,-7.176 -7.14269,-10.08 -2.131,-2.904 -5.36264,-7.44 -7.18141,-10.08 -1.81878,-2.64 -6.34775,-9.12 -10.0644,-14.4 -3.71664,-5.28 -9.5464,-13.704 -12.95502,-18.72 -3.40862,-5.016 -8.7019,-12.576 -11.76284,-16.8 -3.06094,-4.224 -7.6078,-10.704 -10.10414,-14.4 -2.49633,-3.696 -5.92018,-8.664 -7.60856,-11.04 -3.8747,-5.45273 -8.97182,-12.75034 -15.75738,-22.56 -2.92183,-4.224 -7.44813,-10.704 -10.05845,-14.4 C 569.89542,721.3024 560.64,707.36392 560.64,706.56136 c 0,-0.44075 -0.34901,-0.94536 -0.77557,-1.12136 -0.42657,-0.176 -4.44617,-5.936 -8.93247,-12.8 -4.48629,-6.864 -8.99728,-13.72172 -10.02443,-15.23937 -1.02714,-1.51765 -2.94753,-4.38772 -4.26753,-6.37792 -1.32,-1.99021 -8.124,-12.12506 -15.12,-22.5219 -6.996,-10.39684 -12.72,-19.06526 -12.72,-19.26314 0,-0.19789 -3.382,-5.45332 -7.51556,-11.67873 -4.13356,-6.22542 -10.45793,-15.85494 -14.05416,-21.39894 -3.59622,-5.544 -8.36185,-12.888 -10.59028,-16.32 -8.55473,-13.17511 -17.31204,-26.71934 -22.3455,-34.56 -2.88116,-4.488 -5.97725,-9.24 -6.88021,-10.56 -0.90295,-1.32 -3.25615,-5.208 -5.22932,-8.64 -1.97317,-3.432 -4.748,-8.05528 -6.16628,-10.27395 -4.61498,-7.21941 -11.08762,-17.96896 -12.88925,-21.40605 -0.96867,-1.848 -2.93307,-5.16841 -4.36533,-7.37869 -2.32768,-3.5921 -10.66493,-17.04281 -13.16772,-21.24385 -4.56301,-7.65921 -17.20196,-28.5985 -20.85223,-34.54648 -2.49472,-4.06504 -4.87446,-8.03898 -5.28832,-8.83098 -0.922,-1.76445 -6.75551,-11.54329 -9.37584,-15.71696 -19.60167,-31.22151 -34.17277,-49.327 -54.85255,-68.15769 -5.36988,-4.88973 -13.43595,-11.33417 -17.92459,-14.32098 -9.41747,-6.26651 -12.1881,-9.34769 -12.16975,-13.53383 0.0237,-5.4132 1.0639,-7.32226 5.03499,-9.24088 3.47292,-1.67794 6.83027,-1.91082 34.67854,-2.4055 36.83057,-0.65424 139.03815,0.8987 146.51336,2.22611 5.97409,1.06085 22.29918,6.20223 28.8,9.0702 22.40635,9.885 34.26343,17.52962 46.67443,30.0924 7.95291,8.05016 20.82737,23.41292 27.43322,32.73534 1.42321,2.00849 6.69735,9.26779 11.72031,16.13179 5.02297,6.864 10.03157,13.776 11.13023,15.36 1.09865,1.584 5.54451,7.69564 9.87968,13.58142 4.33517,5.88578 8.53013,11.67442 9.32213,12.86365 0.792,1.18923 2.75655,3.93359 4.36567,6.09858 1.60912,2.16499 4.82689,6.74435 7.15059,10.17635 2.32371,3.432 6.62316,9.55813 9.55433,13.61361 2.93118,4.05549 7.48941,10.44876 10.12941,14.20726 2.64,3.7585 6.528,9.18206 8.64,12.05236 5.57831,7.58116 13.78751,19.06751 19.53021,27.32677 5.77532,8.30616 22.5373,32.20067 24.58054,35.04 0.75992,1.056 5.28468,7.536 10.05504,14.4 4.77035,6.864 9.02027,12.912 9.44427,13.44 0.42399,0.528 1.81438,2.688 3.08974,4.8 1.27537,2.112 2.58046,4.056 2.9002,4.32 0.31974,0.264 1.63018,2.208 2.91209,4.32 1.28191,2.112 2.8852,4.49098 3.56286,5.28663 1.28793,1.51216 12.67094,17.95404 26.58042,38.39337 4.49146,6.6 10.34303,15.024 13.00348,18.72 2.66046,3.696 5.96861,8.41858 7.35145,10.49463 1.38285,2.07605 4.76021,6.82805 7.50525,10.56 6.00764,8.16752 14.77871,20.87258 28.21185,40.86537 5.49883,8.184 10.69868,15.802 11.55523,16.9289 0.85655,1.12689 2.20537,3.02298 2.99737,4.21354 0.792,1.19056 2.32379,3.29256 3.40398,4.67111 1.08019,1.37855 4.22395,5.74645 6.98614,9.70645 7.9105,11.34086 16.08219,23.1073 19.54794,28.14712 1.75007,2.54492 3.63011,5.13692 4.17787,5.76 0.54776,0.62309 2.04605,2.86088 3.32952,4.97288 1.28348,2.112 2.68622,4.272 3.11721,4.8 0.96824,1.18618 12.18378,16.82413 14.15734,19.73973 0.792,1.17005 2.31369,3.25527 3.38153,4.63382 1.06785,1.37855 3.84177,5.31445 6.16427,8.74645 2.32251,3.432 6.45528,9.264 9.18394,12.96 2.72866,3.696 7.29873,10.176 10.15573,14.4 2.85699,4.224 5.41053,7.896 5.67453,8.16 0.264,0.264 4.71179,6.744 9.88398,14.4 5.17219,7.656 11.75756,17.16 14.63414,21.12 2.87659,3.96 6.75053,9.36 8.60876,12 5.61574,7.97833 9.11016,12.79574 20.14899,27.77744 5.81027,7.88559 11.21213,15.30098 12.00413,16.47865 1.20515,1.792 21.3751,28.56814 23.7915,31.58391 0.4231,0.528 4.691,6.144 9.4844,12.48 9.8888,13.0713 15.7517,20.7665 23.1091,30.3316 1.4603,1.8984 3.735,4.8812 5.055,6.6284 1.32,1.7472 3.48,4.5789 4.8,6.2926 1.32,1.7137 3.264,4.3109 4.32,5.7715 4.4131,6.1041 19.2027,24.5332 22.3304,27.8255 0.6657,0.7007 2.2857,3.415 3.6,6.0316 1.9157,3.8141 2.3896,6.1966 2.3896,12.013 0,8.4598 -1.1345,11.5114 -5.2048,13.9992 -2.8153,1.7208 -6.8171,1.8287 -84.5552,2.2795 -44.88,0.2603 -83.328,0.3034 -85.44,0.096 z m -520.24503,-5.354 c -3.42006,-3.1948 -3.42006,-3.1948 -3.49888,-283.5148 -0.0433,-154.176 0.22164,-281.09198 0.58888,-282.03551 0.95062,-2.4424 5.47312,-4.52449 9.82762,-4.52449 2.99193,0 4.47857,0.71075 7.52993,3.6 5.78413,5.47682 8.58133,9.53893 21.98037,31.92 6.79618,11.352 13.28105,21.936 14.41082,23.52 1.12976,1.584 3.20345,5.13832 4.60819,7.89848 1.40474,2.76017 4.82004,8.37617 7.58956,12.48 2.76952,4.10384 6.49509,9.83752 8.27905,12.74152 1.78395,2.904 5.36389,8.736 7.95541,12.96 2.59152,4.224 7.47808,12 10.85902,17.28 3.38094,5.28 9.3019,14.784 13.1577,21.12 3.8558,6.336 7.26606,11.736 7.57836,12 0.3123,0.264 3.46814,5.232 7.01299,11.04 7.18057,11.76491 12.44779,20.20202 17.97963,28.8 6.50225,10.10627 12.36427,22.74906 13.35355,28.8 1.02128,6.2467 1.36161,338.217 0.35059,341.9891 -0.31681,1.1821 -1.93091,2.9664 -3.58689,3.9653 -2.85135,1.7198 -6.70754,1.8515 -72.78335,2.4856 -69.77249,0.6696 -69.77249,0.6696 -73.19255,-2.5252 z M 1069.44,1002.5015 c -0.792,-0.3009 -2.3787,-1.6708 -3.5261,-3.04426 -3.3473,-4.00693 -23.028,-28.81482 -24.9552,-31.45641 -0.9673,-1.32585 -3.0902,-4.20842 -4.7176,-6.40573 -1.6274,-2.1973 -6.9141,-9.3951 -11.7484,-15.9951 -10.9658,-14.97113 -15.9139,-21.65178 -20.8127,-28.10002 -2.112,-2.78001 -4.704,-6.20557 -5.76,-7.61234 -1.056,-1.40678 -4.944,-6.583 -8.64,-11.50271 -3.696,-4.91971 -7.68981,-10.24093 -8.87514,-11.82493 -1.18532,-1.584 -6.38912,-8.496 -11.56398,-15.36 -9.88174,-13.10725 -11.54014,-15.61296 -16.5197,-24.96 -1.68773,-3.168 -3.86932,-6.62938 -4.84799,-7.69196 -0.97867,-1.06258 -2.77251,-4.08658 -3.9863,-6.72 C 941.28,827.04 941.28,827.04 941.28,588.26671 c 0,-238.77329 0,-238.77329 2.1868,-240.96 2.1868,-2.18671 2.1868,-2.18671 67.2,-2.18671 61.8031,0 65.1432,0.0882 67.6464,1.78596 1.5084,1.02304 3.0464,3.27854 3.6004,5.28 0.6385,2.30674 1.0486,113.34336 1.2068,326.7635 0.199,268.4842 0.023,323.35254 -1.0389,323.76004 -1.6759,0.643 -10.7961,0.4929 -12.6415,-0.208 z"
         id="path3" />
      <path
         style="fill:#010101"
         d="m 901.92,1108.695 c -11.05986,-1.5954 -24.95301,-5.7263 -36.31176,-10.7967 -5.3156,-2.3728 -20.92127,-11.3891 -23.42213,-13.5323 -0.64565,-0.5533 -2.9342,-2.302 -5.08567,-3.886 -6.75935,-4.9765 -19.82669,-16.7843 -23.83394,-21.5367 -5.87756,-6.9704 -13.88171,-17.1133 -19.36808,-24.5433 -1.55953,-2.112 -3.34887,-4.4433 -3.97631,-5.1808 -0.62745,-0.7374 -6.45013,-8.5134 -12.93928,-17.28 -6.48915,-8.7665 -12.14341,-16.3712 -12.565,-16.8992 -0.4216,-0.528 -2.4705,-3.336 -4.55311,-6.24 -2.08261,-2.904 -7.4657,-10.248 -11.96242,-16.32 -4.49672,-6.072 -9.66505,-13.19025 -11.48519,-15.81834 -1.82013,-2.62809 -3.67455,-5.22009 -4.12093,-5.76 -3.70693,-4.48367 -13.25618,-17.90257 -13.25618,-18.628 0,-0.50251 -0.35504,-1.05766 -0.78898,-1.23366 -0.43395,-0.176 -6.90811,-8.96 -14.38703,-19.52 -7.47892,-10.56 -13.93126,-19.632 -14.33855,-20.16 -0.40728,-0.528 -1.47048,-2.04 -2.36265,-3.36 -0.89218,-1.32 -3.16065,-4.56 -5.04104,-7.2 -1.88039,-2.64 -5.46703,-7.81777 -7.97032,-11.50616 -2.50329,-3.68838 -5.06547,-7.36038 -5.69373,-8.16 -4.75427,-6.05089 -12.7777,-17.46606 -12.7777,-18.17922 0,-0.48104 -0.36614,-1.01862 -0.81364,-1.19462 -0.4475,-0.176 -3.76867,-4.64 -7.38036,-9.92 -3.6117,-5.28 -7.67356,-11.16899 -9.02636,-13.08664 -1.3528,-1.91766 -2.9972,-4.29366 -3.65421,-5.28 -0.65701,-0.98635 -4.20319,-6.11336 -7.8804,-11.39336 -3.6772,-5.28 -7.67564,-11.02981 -8.88542,-12.77734 -1.20979,-1.74754 -2.63161,-3.69447 -3.15961,-4.3265 -1.35001,-1.61601 -5.21642,-7.14485 -13.5501,-19.37616 -3.95722,-5.808 -9.94876,-14.448 -13.31453,-19.2 -3.36577,-4.752 -10.36214,-14.90046 -15.54748,-22.55214 -5.18534,-7.65168 -9.77451,-14.34768 -10.19815,-14.88 -0.42365,-0.53232 -5.5681,-8.31186 -11.43211,-17.28786 -5.86402,-8.976 -10.96512,-16.536 -11.33579,-16.8 -0.37067,-0.264 -1.37214,-1.84307 -2.22551,-3.50905 -0.85336,-1.66598 -2.11781,-3.60998 -2.80988,-4.32 -0.69207,-0.71002 -2.29934,-3.01895 -3.5717,-5.13095 -1.27237,-2.112 -2.55564,-4.056 -2.85171,-4.32 -0.65288,-0.58216 -9.92718,-14.40796 -10.60304,-15.80665 -0.264,-0.54634 -3.46204,-5.52935 -7.10675,-11.07335 -3.64472,-5.544 -9.43424,-14.4 -12.86561,-19.68 -3.43137,-5.28 -9.34683,-14.352 -13.14545,-20.16 -6.11986,-9.3571 -17.11747,-26.38853 -31.30473,-48.48 -2.54313,-3.96 -4.96774,-7.632 -5.38801,-8.16 C 445.83612,531.987 422.4,492.35712 422.4,491.57765 c 0,-0.47171 -0.324,-1.00165 -0.72,-1.17765 -0.396,-0.176 -3.312,-4.56408 -6.48,-9.7513 -3.168,-5.18721 -6.408,-10.43268 -7.2,-11.65659 -0.792,-1.22391 -2.9172,-4.75583 -4.72266,-7.8487 -8.27463,-14.17499 -12.98566,-21.98202 -13.53104,-22.42341 -0.3262,-0.264 -2.07656,-3.072 -3.88969,-6.24 -4.6227,-8.077 -4.58824,-8.0184 -10.84842,-18.45288 -6.26669,-10.44534 -19.07915,-30.10248 -22.14386,-33.97357 -1.09138,-1.37855 -2.63233,-3.49311 -3.42433,-4.69903 -4.73179,-7.2047 -21.9078,-26.42044 -30.24,-33.83113 -4.224,-3.75685 -8.112,-7.30757 -8.64,-7.89049 -1.43077,-1.57962 -11.9893,-9.45037 -15.84,-11.80779 -1.848,-1.13135 -4.56847,-3.19329 -6.04549,-4.58209 -2.4182,-2.27376 -2.65707,-3.06612 -2.4,-7.96099 0.27741,-5.28209 0.39414,-5.49032 4.12549,-7.35897 3.64527,-1.82554 5.98203,-1.93443 46.08,-2.14723 42.24,-0.22416 42.24,-0.22416 38.64,1.70294 -3.5741,1.91323 -3.6,1.97053 -3.6,7.96456 0,6.94556 0.7087,7.87422 11.52,15.09541 7.92206,5.29139 6.61623,4.25059 17.44207,13.902 11.20258,9.98729 23.78718,23.66171 33.53515,36.43926 5.31017,6.96052 21.46139,31.2931 25.80737,38.88 1.05858,1.848 2.99682,5.088 4.30721,7.2 1.31038,2.112 3.25438,5.352 4.32,7.2 1.06561,1.848 2.91189,4.95609 4.10284,6.90687 1.19095,1.95077 7.99736,13.15294 15.12536,24.89371 7.128,11.74077 14.33204,23.53668 16.00899,26.21314 1.67694,2.67645 4.2184,7.02628 5.64768,9.66628 2.62954,4.85696 10.69865,17.98442 13.99068,22.76113 0.98596,1.43062 1.79265,2.84388 1.79265,3.14058 0,0.2967 1.01781,2.15019 2.26179,4.11887 7.02275,11.1139 11.6623,18.35527 19.20782,29.97942 4.62696,7.128 11.04556,17.064 14.26355,22.08 9.30543,14.50473 15.83459,24.51391 24.91805,38.19932 4.65783,7.01763 8.46879,12.92106 8.46879,13.11873 0,0.19768 5.724,8.86592 12.72,19.26276 6.996,10.39684 13.8,20.53169 15.12,22.5219 1.32,1.9902 3.24039,4.86027 4.26753,6.37792 1.02715,1.51765 5.53814,8.37537 10.02443,15.23937 4.4863,6.864 8.5059,12.624 8.93247,12.8 0.42656,0.176 0.77557,0.70313 0.77557,1.1714 0,0.75438 9.25817,15.04874 10.53686,16.2686 0.27673,0.264 0.93514,1.17668 1.46314,2.02818 1.13747,1.83438 11.40783,16.58657 16.29912,23.41182 3.69425,5.15491 16.51472,23.71026 23.49901,34.01064 2.35297,3.47015 4.54778,6.52536 4.87735,6.78936 0.56498,0.45258 5.5238,7.59183 15.28265,22.00256 2.35297,3.47459 4.51297,6.53344 4.8,6.79744 0.28703,0.264 0.95387,1.1755 1.48187,2.02555 0.84641,1.36268 12.9546,18.85244 16.8,24.26688 0.792,1.11517 1.764,2.17157 2.16,2.34757 0.396,0.176 0.72,0.71118 0.72,1.18928 0,0.4781 1.88249,3.3581 4.18332,6.4 2.30082,3.0419 6.11037,8.33872 8.46565,11.77072 2.35529,3.432 7.03045,10.128 10.38925,14.88 3.3588,4.752 7.64925,10.86847 9.53434,13.59216 1.88509,2.72368 6.01944,8.51097 9.18744,12.86063 3.168,4.34966 6.408,8.86664 7.2,10.03773 0.792,1.1711 3.384,4.83443 5.76,8.14074 2.376,3.30632 4.94297,6.92887 5.70439,8.05011 0.76141,1.12125 5.04509,7.00663 9.51929,13.07863 4.4742,6.072 9.55332,12.984 11.28694,15.36 1.73362,2.376 4.91913,6.696 7.07892,9.6 2.15978,2.904 6.09127,8.304 8.73664,12 7.11613,9.94236 18.03925,24.7651 22.95382,31.1485 2.376,3.0861 5.184,6.8063 6.24,8.2671 1.056,1.4608 3,4.0547 4.32,5.7644 1.32,1.7096 3.264,4.3016 4.32,5.76 1.056,1.4583 3.11074,4.2015 4.5661,6.0958 1.45535,1.8943 3.61535,4.7287 4.8,6.2986 9.9601,13.1994 29.67473,31.7454 43.27691,40.7115 15.23778,10.0442 37.71253,19.2785 52.47699,21.5615 1.32,0.2041 -15.312,0.3773 -36.96,0.3848 -21.648,0.01 -41.952,-0.3602 -45.12,-0.8172 z m -513.3544,-3.3962 c -2.39537,-1.7044 -3.74608,-3.5222 -4.10145,-5.52 -0.29143,-1.6384 -0.40708,-128.35481 -0.25701,-281.59216 0.27286,-278.61336 0.27286,-278.61336 2.32533,-280.6658 1.27485,-1.27484 3.75433,-2.24427 6.54442,-2.55876 4.44825,-0.50138 4.54505,-0.45128 9.94753,5.14808 3.00057,3.10991 8.85853,11.26936 13.0177,18.13211 4.15916,6.86275 11.61116,18.9814 16.56,26.93033 L 441.6,599.62521 v 251.12663 c 0,251.12666 0,251.12666 2.32347,253.36286 1.27791,1.23 2.11641,2.5713 1.86334,2.9808 -0.25307,0.4095 -12.42776,0.7445 -27.05487,0.7445 -26.59475,0 -26.59475,0 -30.16634,-2.5412 z m 683.0688,-102.7509 c -2.9238,-0.4022 -6.884,-4.37132 -14.4705,-14.50334 -0.9042,-1.2075 -3.1559,-4.04441 -5.0039,-6.30425 -1.848,-2.25984 -4.44,-5.55067 -5.76,-7.31295 -2.3816,-3.17957 -6.9714,-9.22479 -8.4029,-11.06736 -0.4102,-0.528 -2.4609,-3.336 -4.5571,-6.24 -2.0962,-2.904 -4.1497,-5.712 -4.5634,-6.24 -3.9019,-4.98074 -13.1966,-17.8039 -13.1966,-18.20634 0,-0.28251 -0.6753,-1.26966 -1.5006,-2.19366 -0.8253,-0.924 -2.776,-3.408 -4.3349,-5.52 -4.482,-6.07207 -5.4578,-7.354 -9.86469,-12.96 -2.28286,-2.904 -8.48896,-11.112 -13.79134,-18.24 -5.30237,-7.128 -13.38346,-17.88606 -17.95796,-23.9068 -7.79904,-10.26471 -12.81634,-18.06055 -17.82602,-27.69799 -1.16784,-2.24664 -2.55883,-4.35394 -3.09109,-4.6829 -0.53227,-0.32896 -1.99953,-2.93112 -3.26058,-5.78258 C 941.76,826.50525 941.76,826.50525 941.76,588.86952 c 0,-161.14914 0.31815,-238.23021 0.98846,-239.4827 2.35528,-4.40089 4.87947,-4.74863 34.24387,-4.71763 20.13842,0.0213 27.16697,0.30864 25.87777,1.05804 -4.68188,2.72149 -4.47089,-8.73056 -4.45871,242.00194 0.009,192.86208 0.23969,235.3633 1.29681,239.31083 1.5008,5.60443 6.5971,15.69398 12.6075,24.96 2.036,3.13888 2.7964,4.17042 15.4465,20.95407 4.7068,6.24474 10.0698,13.4145 11.9178,15.9328 1.848,2.5183 4.44,5.88666 5.76,7.48526 1.32,1.59859 3.264,4.11094 4.32,5.58298 1.056,1.47205 3,4.07524 4.32,5.78486 1.32,1.70963 3.264,4.30163 4.32,5.76 1.056,1.45838 3,4.08687 4.32,5.84109 20.9727,27.87181 19.8101,25.76133 20.3817,36.99926 0.8825,17.35071 0.8683,44.74608 -0.024,45.29718 -1.3632,0.8426 -8.0623,1.3755 -11.4437,0.9104 z"
         id="path2" />
    </g>
  </g>
</svg>
